<?xml version="1.0" encoding="UTF-8" standalone="no"?>
<!-- Created with Inkscape (http://www.inkscape.org/) -->

<svg
   xmlns:osb="http://www.openswatchbook.org/uri/2009/osb"
   xmlns:dc="http://purl.org/dc/elements/1.1/"
   xmlns:cc="http://creativecommons.org/ns#"
   xmlns:rdf="http://www.w3.org/1999/02/22-rdf-syntax-ns#"
   xmlns:svg="http://www.w3.org/2000/svg"
   xmlns="http://www.w3.org/2000/svg"
   xmlns:sodipodi="http://sodipodi.sourceforge.net/DTD/sodipodi-0.dtd"
   xmlns:inkscape="http://www.inkscape.org/namespaces/inkscape"
   id="svg4190"
   version="1.1"
   inkscape:version="0.91 r13725"
   width="215"
   height="215"
   viewBox="0 0 215 215"
   sodipodi:docname="icon.svg">
  <metadata
     id="metadata4196">
    <rdf:RDF>
      <cc:Work
         rdf:about="">
        <dc:format>image/svg+xml</dc:format>
        <dc:type
           rdf:resource="http://purl.org/dc/dcmitype/StillImage" />
        <dc:title />
      </cc:Work>
    </rdf:RDF>
  </metadata>
  <defs
     id="defs4194">
    <linearGradient
       id="linearGradient4709"
       osb:paint="solid">
      <stop
         style="stop-color:#000000;stop-opacity:1;"
         offset="0"
         id="stop4711" />
    </linearGradient>
  </defs>
  <sodipodi:namedview
     pagecolor="#ffffff"
     bordercolor="#666666"
     borderopacity="1"
     objecttolerance="10"
     gridtolerance="10"
     guidetolerance="10"
     inkscape:pageopacity="0"
     inkscape:pageshadow="2"
     inkscape:window-width="1326"
     inkscape:window-height="1059"
     id="namedview4192"
     showgrid="false"
     inkscape:zoom="2.5142751"
     inkscape:cx="125.41154"
     inkscape:cy="46.094216"
     inkscape:window-x="0"
     inkscape:window-y="19"
     inkscape:window-maximized="0"
     inkscape:current-layer="svg4190" />
  <rect
     style="opacity:1;fill:#000000;fill-opacity:0;fill-rule:nonzero;stroke:none;stroke-width:0;stroke-miterlimit:3.29999995;stroke-dasharray:none;stroke-dashoffset:17.99336052;stroke-opacity:1"
     id="rect4707"
     width="256"
     height="256"
     x="0"
     y="-41"
     ry="69.031685" />
  <g
     id="g4200"
     transform="matrix(0.70437092,0,0,0.70437092,0.42949718,19.087192)">
    <path
       style="fill-opacity:1"
       d="M 2.174314,248.68555 C 0.80008686,247.22275 0,245.08798 0,242.8841 c 0,-2.15241 4.521831,-14.56653 11.814616,-32.43555 6.498038,-15.9217 16.85719,-41.56678 23.020338,-56.98906 L 46.040676,125.41897 23.020338,68.223677 C 9.0049206,33.401601 0,9.7219126 0,7.6885039 0,3.195097 3.4375043,0 8.2718194,0 12.740006,0 9.6080991,-3.9506517 45.531398,47 77.008742,91.644874 82.499641,99.224065 81.754919,97 81.478669,96.175 73.545802,76.50092 64.126324,53.279823 53.748752,27.696812 47,9.7373832 47,7.7041369 47,0.81982561 56.098968,-2.8024139 60.700644,2.25 c 1.1271,1.2375 16.322642,22.5 33.767871,47.25 17.445225,24.75 32.158685,45.45 32.696555,46 1.17626,1.202765 0.77209,0.164022 -18.79696,-48.308597 C 97.35961,19.923286 93.093705,8.2512467 93.566145,6.6914029 95.413986,0.59043327 102.45694,-2.0466215 106.76347,1.75 c 1.09177,0.9625 14.03017,18.85 28.75201,39.75 14.72185,20.9 30.2721,42.968172 34.55612,49.040382 l 7.78913,11.040378 57.81963,7.23588 c 31.8008,3.97973 59.49086,7.68724 61.53346,8.23892 9.7797,2.64135 8.76495,15.68111 -1.35209,17.37462 C 291.5773,135.14736 180.7012,149 179.24535,149 c -1.07237,0 -5.64279,6.33706 -48.68239,67.5 -11.99787,17.05 -22.70761,31.7875 -23.79942,32.75 -4.91151,4.32981 -13.223845,0.19053 -13.107937,-6.52734 C 93.686184,240.9502 100.6706,222.4 109.17652,201.5 c 18.93948,-46.53643 19.21404,-47.23878 17.98199,-46 -0.90991,0.91488 -15.06512,20.84295 -52.394146,73.76182 -7.667004,10.869 -14.770904,20.2065 -15.786445,20.75 C 57.962379,250.55532 55.78456,251 54.138322,251 50.481094,251 47,247.0347 47,242.86877 c 0,-1.57383 7.874028,-22.28911 17.49784,-46.03396 9.623812,-23.74486 17.352361,-43.31794 17.174553,-43.49575 -0.177807,-0.17781 -4.639845,5.86066 -9.915638,13.41883 -28.246078,40.46565 -55.019031,78.12823 -57.574338,80.99211 -3.644333,4.08441 -8.6812352,4.47684 -12.008103,0.93555 z"
       id="path4216"
       inkscape:connector-curvature="0" />
    <path
       style="fill-opacity:1"
       d="M 2.4545455,248.54545 C 0.82389899,246.91481 0,244.96469 0,242.73569 0,240.82946 3.3771386,231.20095 7.8199943,220.44024 12.120991,210.02311 22.486876,184.3638 30.855294,163.41955 L 46.070599,125.33909 23.035299,68.1741 C 8.5672822,32.269894 0,9.7326866 0,7.5771326 0,1.3426576 8.0785496,-2.334353 12.802459,1.75 c 1.640059,1.4180156 38.09214,52.488087 63.16119,88.490049 2.964273,4.257027 5.53489,7.594746 5.712482,7.417153 C 81.853724,97.47961 74.124246,77.833326 64.499513,53.998795 54.874781,30.164263 47,9.3685899 47,7.786187 47,1.1773996 55.387985,-2.307024 60.327155,2.25 c 2.128863,1.9641524 16.068637,21.470807 56.454695,79 5.69505,8.1125 10.54528,14.75 10.7783,14.75 0.51022,0 0.86459,0.902409 -18.24454,-46.460527 C 99.386046,24.928535 94,10.307601 94,7.9637866 94,0.49166665 102.73324,-2.8456939 107.64349,2.75 c 1.32722,1.5125 17.49487,24.12198 35.92811,50.24329 18.43324,26.121309 33.833,47.80482 34.22169,48.18557 0.38869,0.38075 27.62658,4.09776 60.52865,8.26002 32.90206,4.16226 60.67925,8.02657 61.72708,8.58735 5.2704,2.82064 5.27581,12.12401 0.009,14.94289 -1.04305,0.55822 -28.82024,4.41643 -61.72708,8.5738 -35.74732,4.51622 -60.28735,8.04152 -60.96527,8.75796 -1.10024,1.16276 -28.94322,40.44843 -56.13089,79.19912 -7.33177,10.45 -14.06989,19.5625 -14.97361,20.25 C 101.38658,253.4581 94,249.34806 94,242.92782 c 0,-2.12076 5.882586,-18.0356 15.31578,-41.43555 C 128.43144,154.07401 128.06785,155 127.5714,155 c -0.39562,0 -5.25168,6.82193 -46.980828,66 C 70.313076,235.575 60.975914,248.2875 59.841324,249.25 55.033526,253.32857 47,249.42921 47,243.017 47,241.32636 52.809515,225.6684 59.910033,208.22155 78.407656,162.7706 82.014415,153.68108 81.68331,153.34998 81.397867,153.06453 75.876301,160.81247 34.541507,219.5 23.69498,234.9 13.911073,248.2875 12.799491,249.25 9.8915826,251.76791 5.3689858,251.45989 2.4545455,248.54545 Z"
       id="path4214"
       inkscape:connector-curvature="0" />
    <path
       style="fill-opacity:1"
       d="M 2.4545455,248.54545 C 0.9195643,247.01047 0,244.94619 0,243.03537 c 0,-1.68055 6.4479358,-18.9135 14.328746,-38.29546 7.880811,-19.38195 18.283857,-45.17523 23.117882,-57.31839 L 46.235763,125.34304 23.109867,67.92152 C 10.390624,36.339684 -0.01242232,9.2420455 -0.0080144,7.7045455 0.00954034,1.5813816 8.2248178,-2.2480374 12.76631,1.75 13.859644,2.7125 28.385671,22.85 45.046371,46.5 84.735727,102.83936 83,100.40085 83,99.820756 83,99.543101 75.987562,82.032345 67.416803,60.907964 44.13692,3.529946 45.134097,6.7749944 49.454545,2.4545455 52.36949,-0.46039871 56.876861,-0.76625133 59.837481,1.75 61.600466,3.2483729 92.63102,46.713754 119.27084,85 c 4.40098,6.325 8.42262,11.95 8.93699,12.5 1.13332,1.211844 0.59435,-0.170323 -18.79093,-48.187752 C 99.768339,25.412704 94,9.8188137 94,7.6348286 94,0.61944033 102.54528,-2.4832716 107.45347,2.75 c 1.41854,1.5125 9.6842,12.875 18.36813,25.25 30.06131,42.838753 50.37896,71.505252 51.52616,72.6991 0.68597,0.71387 25.37977,4.2667 61.02366,8.7798 32.92928,4.16938 60.70646,8.0276 61.72708,8.57382 4.50471,2.41085 5.28188,9.65781 1.44695,13.49273 -1.35,1.35 -2.90539,2.45455 -3.45643,2.45455 -0.55104,0 -27.684,3.37942 -60.29546,7.50981 l -59.29356,7.50981 -2.24214,2.74019 C 175.02469,153.26692 160.07227,174.3 143.03028,198.5 107.18563,249.40017 105.9373,251 102.06509,251 97.599935,251 94,247.51878 94,243.20088 c 0,-2.40465 5.275834,-16.65444 15.43062,-41.67742 18.76316,-46.23533 19.95735,-49.28801 18.78656,-48.02346 -0.50921,0.55 -6.7768,9.325 -13.92796,19.5 -7.15116,10.175 -21.382616,30.425 -31.625452,45 -22.40367,31.87921 -23.339972,33 -27.567926,33 C 51.029748,251 47,247.15175 47,243.26879 c 0,-1.55216 8.103439,-22.79417 18.007642,-47.20447 9.904203,-24.4103 17.891703,-44.48824 17.75,-44.61764 -0.141703,-0.12939 -5.514865,7.25467 -11.94036,16.40903 -36.193935,51.56526 -57.086447,80.78913 -58.54727,81.89429 -2.6830574,2.02983 -7.1263762,1.48454 -9.8154665,-1.20455 z"
       id="path4212"
       inkscape:connector-curvature="0" />
    <path
       style="fill-opacity:1"
       d="M 2.4545455,248.54545 C 1.0098381,247.10075 0,244.93153 0,243.27288 0,241.72296 10.35,214.85448 23,183.56513 35.65,152.27578 46,126.16833 46,125.54856 46,124.9288 35.65,98.797173 23,67.478276 10.35,36.15938 0,9.2690374 0,7.7219596 0,1.9856231 7.8239744,-2.150883 12.241357,1.25 13.63578,2.3235476 38.122614,36.631434 72.864061,86.186943 78.141523,93.714762 82.582416,99.750917 82.732712,99.600622 82.883007,99.450326 74.904632,79.232961 65.002988,54.673145 55.101345,30.113328 47,8.8692181 47,7.4640117 47,1.5757022 55.334646,-2.1560205 59.762006,1.75 c 1.663589,1.467695 17.40156,23.53622 62.047744,87.006267 3.58108,5.090946 6.64477,9.122545 6.80821,8.959109 0.16343,-0.163436 -7.55875,-19.728852 -17.1604,-43.478702 C 100.54828,27.2524 94,9.7591739 94,7.6001443 94,1.7728927 101.60512,-2.215743 106.04717,1.2818034 107.42358,2.365559 118.6188,18.03506 164.29979,82.81569 c 7.25084,10.282486 13.85518,18.64722 15.05789,19.07157 1.17828,0.41574 28.46732,4.03105 60.64232,8.03404 36.654,4.56022 59.32278,7.79823 60.70327,8.67086 4.73954,2.99591 3.32791,13.66403 -1.97146,14.89895 -1.22749,0.28604 -27.43181,3.66673 -58.23181,7.51263 -30.8,3.84591 -57.46345,7.23896 -59.25212,7.54012 -3.89683,0.65611 -1.42844,-2.57579 -41.20954,53.95614 -16.64234,23.65 -31.56629,44.2375 -33.16434,45.75 -1.59806,1.5125 -4.04391,2.75 -5.43523,2.75 C 97.91874,251 94,246.8126 94,243.05124 c 0,-1.67182 7.85526,-22.48702 17.45612,-46.256 9.60087,-23.76898 17.32571,-43.34675 17.1663,-43.50615 -0.1594,-0.15941 -5.44438,7.02284 -11.74439,15.96054 C 110.57802,178.18733 95.596686,199.45 83.586185,216.5 71.575683,233.55 60.855552,248.2875 59.763671,249.25 55.341564,253.14811 47,249.42698 47,243.55618 c 0,-2.94346 -0.949322,-0.46017 19.868432,-51.97289 8.872313,-21.95419 16.010503,-40.03769 15.862645,-40.18555 -0.147859,-0.14786 -6.190076,8.13967 -13.427149,18.41671 -38.024575,53.99704 -55.791652,78.8085 -57.217747,79.90375 -2.6277583,2.01813 -6.9693943,1.4895 -9.6316355,-1.17275 z"
       id="path4210"
       inkscape:connector-curvature="0" />
    <path
       style="fill-opacity:1"
       d="M 2.4545455,248.54545 C 0.97317071,247.06408 0,244.9372 0,243.18101 0,241.58056 2.6576689,233.7976 5.9059308,225.88555 21.380587,188.19269 46,126.56321 46,125.51856 46,124.87514 39.663757,108.63275 31.919461,89.424355 24.175165,70.21596 13.825165,44.534837 8.9194611,32.355193 4.0137575,20.175549 0,9.0175946 0,7.5597384 0,2.0068226 7.7745378,-2.0321714 12.084208,1.2818034 13.52085,2.3865273 21.508685,13.538428 67.87729,79.175121 75.910481,90.546437 82.600617,99.732716 82.744259,99.589074 82.887901,99.445432 74.904205,79.220558 65.002713,54.644909 55.101221,30.06926 47,8.8250266 47,7.435501 47,1.5721243 55.345061,-2.1451712 59.763541,1.75 60.855351,2.7125 71.564116,17.45 83.560795,34.5 125.19509,93.671772 128.30489,98.028448 128.65642,97.67691 128.85079,97.482548 124.91647,87.238232 119.9135,74.911763 96.545405,17.336698 94,10.71734 94,7.5233667 94,1.0517291 102.38795,-2.4146657 106.76044,2.25 c 1.15999,1.2375 14.9794,20.475 30.70979,42.75 42.94604,60.81367 39.89106,56.79908 43.7131,57.44403 1.82417,0.30782 28.51667,3.71301 59.31667,7.56709 30.8,3.85407 57.1989,7.49184 58.66421,8.08393 3.14669,1.27148 5.31745,5.84974 4.43696,9.35786 -1.03409,4.12016 -4.19217,6.21675 -10.39133,6.89862 -3.14041,0.34542 -30.18599,3.74629 -60.10129,7.55749 -45.5547,5.80364 -54.67936,7.22688 -56.16356,8.76021 -0.97466,1.00692 -6.66852,8.80577 -12.65303,17.33077 -42.55844,60.62503 -54.87367,77.83644 -57.42104,80.25 -1.59636,1.5125 -4.04083,2.75 -5.43215,2.75 C 97.918699,251 94,246.8126 94,243.05116 c 0,-1.67186 7.87746,-22.46486 17.50546,-46.20666 9.628,-23.74181 17.33766,-43.33471 17.13259,-43.53979 -0.20508,-0.20507 -7.12277,9.20497 -15.37265,20.91121 -41.146175,58.38475 -52.523382,74.2563 -54.07405,75.43492 C 54.582303,253.15406 47,248.7533 47,242.57499 c 0,-0.85608 8.113235,-21.64742 18.029411,-46.203 9.916176,-24.55558 17.870654,-44.80526 17.676618,-44.99929 -0.194037,-0.19404 -2.767704,3.13022 -5.719261,7.38725 C 74.035211,163.01698 61.89912,180.225 50.017679,197 38.136237,213.775 25.059169,232.31478 20.957529,238.1995 11.665521,251.53097 7.6726702,253.76358 2.4545455,248.54545 Z"
       id="path4208"
       inkscape:connector-curvature="0" />
    <path
       style="fill-opacity:1"
       d="m 3.793608,249.45087 c -5.9044137,-3.20496 -5.9098928,-3.18629 19.13192,-65.20166 C 35.616487,152.82039 46,126.4025 46,125.54279 46,124.68308 35.65,98.338824 23,67 10.35,35.661176 0,8.9406011 0,7.6209442 0,4.2908042 2.9095885,1.119949 6.6227971,0.40345252 9.1541941,-0.08500294 10.322619,0.34053515 12.792484,2.6504406 15.498161,5.180885 30.062722,25.493186 69.330109,81.5 75.885562,90.85 81.884726,99.175 82.661585,100 83.438443,100.825 76.012532,81.475 66.159561,57 56.30659,32.525 47.924075,11.454327 47.531749,10.176281 46.495085,6.7992303 48.715283,2.3605745 52.153488,0.93642301 57.441582,-1.2539769 59.764038,0.91037302 74.219247,21.5 c 32.771163,46.678397 54.028843,76.535294 54.856003,77.04651 0.49329,0.304868 -0.031,-1.605878 -1.16503,-4.246102 C 118.303,71.933603 94,9.839572 94,7.6599924 94,4.1372075 98.080255,0 101.55455,0 c 1.6839,0 3.79039,1.1934433 5.79545,3.2834366 1.7325,1.8058901 18.225,24.7376814 36.65,50.9595364 29.65006,42.196986 33.84477,47.734697 36.5,48.185947 1.65,0.28041 28.425,3.6912 59.5,7.57953 31.075,3.88833 57.67913,7.53252 59.12028,8.09821 2.54496,0.99895 4.87972,4.53639 4.87972,7.39334 0,2.85601 -2.33446,6.39435 -4.87972,7.39618 -1.44115,0.56725 -28.04528,4.19613 -59.12028,8.06419 -31.075,3.86805 -57.85,7.26649 -59.5,7.5521 -2.4226,0.41933 -4.24195,2.29655 -9.45276,9.7534 -3.54902,5.07877 -16.1699,22.95913 -28.04642,39.73413 -11.87651,16.775 -24.65874,34.90889 -28.40496,40.29753 -3.74622,5.38865 -7.86955,10.49092 -9.16295,11.33838 C 100.67066,252.75626 94,248.88769 94,243.00552 c 0,-1.95059 22.46745,-59.06913 34.33633,-87.29257 0.87592,-2.08287 1.1888,-3.5375 0.6953,-3.2325 -0.4935,0.305 -7.1652,9.43418 -14.82599,20.28705 -57.027582,80.78973 -54.025617,76.7232 -57.437526,77.8061 -3.040197,0.96492 -7.47315,-1.44728 -8.873772,-4.82868 -1.530194,-3.69422 -3.041664,0.57242 19.570702,-55.24492 9.135313,-22.55 15.9679,-40.325 15.183526,-39.5 -0.784374,0.825 -6.788644,9.15 -13.342822,18.5 -39.417224,56.23147 -53.796673,76.30827 -56.402495,78.75 -3.2949866,3.0875 -5.1769251,3.33559 -9.109645,1.20087 z"
       id="path4206"
       inkscape:connector-curvature="0" />
    <path
       style="fill-opacity:1"
       d="M 2.9230769,248.07692 C 1.3153846,246.46923 0,244.19217 0,243.0168 0,241.84142 2.5302927,234.7193 5.6228727,227.18987 8.7154527,219.66044 19.219472,193.6862 28.965138,169.46934 L 46.68453,125.43868 25.318369,72.469338 C -1.9565223,4.8515304 -0.54982957,8.7416196 0.95772755,5.1020547 2.6356751,1.051131 7.3656944,-0.86640688 10.852554,1.0907169 c 1.41795,0.7958745 10.367484,12.4635481 19.887854,25.9281641 9.520371,13.464615 24.519087,34.694219 33.33048,47.176898 8.811393,12.482678 16.906014,23.732678 17.988045,25 C 83.956657,101.41847 83.952278,101.3054 81.935179,96 80.785083,92.975 73.536194,74.975 65.826538,56 47.476122,10.835972 46.897113,9.2581161 47.618875,6.3823867 48.33288,3.5375643 52.490018,0 55.119082,0 c 3.276892,0 7.355175,4.9790408 27.439521,33.5 10.844619,15.4 25.812557,36.655314 33.262077,47.234032 7.44952,10.578717 13.68721,19.091407 13.86153,18.917088 0.17432,-0.174319 -7.78286,-20.393404 -17.68263,-44.931299 C 102.09981,30.181926 94,8.9567361 94,7.552733 94,2.7541681 100.62934,-1.339108 104.79247,0.88893412 106.62478,1.8695563 122.15621,23.382705 160.82383,78.5 c 8.48877,12.1 15.80966,22.41108 16.26865,22.9135 0.45899,0.50243 28.09121,4.35519 61.40493,8.56169 55.20436,6.97061 60.7623,7.84008 62.7365,9.81427 2.88177,2.88178 2.90632,8.51475 0.0496,11.37152 -1.62864,1.62864 -4.38331,2.40871 -11.95,3.38403 -5.40841,0.69712 -31.88347,4.01561 -58.83347,7.37443 -26.95,3.35881 -49.99971,6.4385 -51.22158,6.84374 -1.3558,0.44967 -7.99233,8.92089 -17.02908,21.73682 -51.59378,73.17035 -55.6247,78.69221 -58.14385,79.64999 -3.66067,1.39179 -8.824731,-1.18733 -9.753587,-4.87129 -0.868057,-3.44283 -0.04028,-5.72069 20.055907,-55.18947 8.58219,-21.12593 15.45208,-38.56268 15.26641,-38.74834 -0.18566,-0.18566 -1.68615,1.57418 -3.33442,3.91077 -1.64828,2.33659 -16.62363,23.59834 -33.278557,47.24834 -16.654932,23.65 -31.589192,44.2375 -33.187245,45.75 -3.562581,3.37186 -5.929769,3.46626 -9.518234,0.37959 -2.024648,-1.74153 -2.743656,-3.26703 -2.710127,-5.75 0.02667,-1.97516 6.725417,-19.79427 16.119747,-42.87959 20.85709,-51.25354 20.693189,-50.82809 18.876756,-49 -1.394817,1.40377 -18.667044,25.67628 -53.929566,75.78674 -8.238663,11.7077 -15.919483,21.9452 -17.068487,22.75 -3.1180094,2.18394 -5.4711502,1.79004 -8.7210101,-1.45982 z"
       id="path4204"
       inkscape:connector-curvature="0" />
    <path
       style="fill-opacity:1"
       d="M 2.908181,248.06203 C 0.39543131,245.54928 -0.1204771,244.35239 0.33263319,242.08683 0.64426735,240.52866 11.084036,214.10919 23.532119,183.3769 35.980202,152.6446 46.162203,126.6 46.158788,125.5 46.155373,124.4 36.227001,99.008277 24.095739,69.073948 11.964477,39.13962 1.5365147,13.125655 0.92248889,11.265139 -1.3724988,4.3112581 4.9983435,-2.1951666 10.873424,1.102431 12.302852,1.9047481 19.328598,10.886512 26.486192,21.061906 64.919418,75.699428 82.249673,100.03627 83.096481,100.55963 84.20474,101.24457 85.112632,103.58354 64.24764,52 55.23764,29.725 47.805194,9.9798871 47.731093,8.1219713 c -0.101582,-2.5469757 0.543685,-3.9615742 2.622853,-5.75 3.590359,-3.08829631 5.957755,-2.99425786 9.516784,0.3780287 1.596256,1.5125 14.942052,19.85 29.657326,40.75 14.715274,20.9 29.688524,42.16532 33.273894,47.256267 3.58537,5.090946 6.67955,9.095563 6.87597,8.899149 0.19641,-0.196415 -7.75077,-20.447136 -17.6604,-45.001602 C 102.10788,30.099347 94,9.0776464 94,7.9389231 c 0,-5.1212618 5.41347,-8.87281851 10.18541,-7.05853038 1.72245,0.65487628 8.24537,9.04764478 20.04818,25.79515728 49.08349,69.646671 52.87439,74.85207 55.02845,75.56127 1.23088,0.40524 24.28796,3.47861 51.23796,6.8297 69.31772,8.61928 68.50579,8.49483 70.87465,10.86368 2.72852,2.72852 2.69584,8.44375 -0.0641,11.20366 -1.87191,1.8719 -8.40288,2.89374 -62.73831,9.81608 -33.3569,4.24968 -61.02755,8.13694 -61.49034,8.63837 -0.77147,0.83588 -15.50821,21.65559 -55.3887,78.25185 -9.87109,14.00852 -15.90029,21.66826 -17.54916,22.29516 C 99.511296,251.8967 94,247.72788 94,242.46219 c 0,-0.79403 8.11323,-21.53462 18.02941,-46.0902 9.91618,-24.55558 17.85467,-44.82124 17.6411,-45.03481 -0.21357,-0.21357 -5.37184,6.71069 -11.46283,15.38725 -41.62554,59.29528 -58.031994,81.88035 -60.471616,83.24505 -2.457299,1.37458 -3.016249,1.37399 -5.486064,-0.006 -1.5125,-0.84498 -3.372657,-2.83176 -4.133682,-4.41507 -1.323372,-2.75326 -0.628437,-4.75668 15.943639,-45.96367 9.530027,-23.69671 17.938285,-44.58826 18.685017,-46.42567 2.984792,-7.34437 3.582879,-8.15492 -47.107258,63.84074 -21.735398,30.87098 -23.24082,32.75292 -26.8625479,33.5811 -2.1849909,0.49964 -3.3473524,5.6e-4 -5.8669871,-2.51907 z"
       id="path4202"
       inkscape:connector-curvature="0" />
  </g>
</svg>
