<?xml version="1.0" encoding="UTF-8" standalone="no"?>
<!-- Created with Inkscape (http://www.inkscape.org/) -->

<svg
   xmlns:dc="http://purl.org/dc/elements/1.1/"
   xmlns:cc="http://creativecommons.org/ns#"
   xmlns:rdf="http://www.w3.org/1999/02/22-rdf-syntax-ns#"
   xmlns:svg="http://www.w3.org/2000/svg"
   xmlns="http://www.w3.org/2000/svg"
   xmlns:sodipodi="http://sodipodi.sourceforge.net/DTD/sodipodi-0.dtd"
   xmlns:inkscape="http://www.inkscape.org/namespaces/inkscape"
   id="svg4181"
   version="1.1"
   inkscape:version="0.91 r13725"
   width="4910"
   height="477"
   viewBox="0 0 4910 477"
   sodipodi:docname="Logo.svg">
  <metadata
     id="metadata4187">
    <rdf:RDF>
      <cc:Work
         rdf:about="">
        <dc:format>image/svg+xml</dc:format>
        <dc:type
           rdf:resource="http://purl.org/dc/dcmitype/StillImage" />
        <dc:title></dc:title>
      </cc:Work>
    </rdf:RDF>
  </metadata>
  <defs
     id="defs4185" />
  <sodipodi:namedview
     pagecolor="#ffffff"
     bordercolor="#666666"
     borderopacity="1"
     objecttolerance="10"
     gridtolerance="10"
     guidetolerance="10"
     inkscape:pageopacity="0"
     inkscape:pageshadow="2"
     inkscape:window-width="1918"
     inkscape:window-height="1059"
     id="namedview4183"
     showgrid="false"
     inkscape:zoom="0.40797796"
     inkscape:cx="1612.2348"
     inkscape:cy="91.460546"
     inkscape:window-x="1920"
     inkscape:window-y="19"
     inkscape:window-maximized="0"
     inkscape:current-layer="svg4181" />
  <path
     style="fill:#000000"
     d="m 8.3110667,475.06077 c -3.0399,-1.38015 -4.7898,-3.07591 -6.3698,-6.173 -3.5031,-6.86676 -2.47830004,-11.01904 10.5838003,-42.8802 6.4263,-15.675 26.0762,-64.275 43.6666,-108 27.0719,-67.29347 31.838,-79.88385 31.0413,-82 -0.5177,-1.375 -15.4652,-38.5 -33.2166,-82.5 -17.7515,-44 -37.1647,-92.150003 -43.1406,-107.000003 -7.4982003,-18.63281 -10.86600034,-28.23958 -10.86770034,-31 -0.01,-9.0344595 7.26170004,-15.93304952 16.02300034,-15.20989952 2.4908,0.20558 5.751,1.17464002 7.2448,2.15345002 1.4939,0.97882 7.3088,8.3669395 12.9221,16.4180595 5.6133,8.05112 29.304,41.63839 52.6461,74.63839 23.342103,33.000003 48.286303,68.325003 55.431703,78.500003 7.1454,10.175 13.4141,18.95 13.9306,19.5 0.5165,0.55 -0.028,-1.475 -1.2091,-4.5 -2.2241,-5.69444 -37.0525,-92.135093 -56.207,-139.500003 -10.453903,-25.85015 -10.903503,-27.26479 -10.558003,-33.21769 0.2844,-4.9009095 0.8807,-6.7812795 2.8155,-8.8788795 4.9884,-5.40809002 12.982703,-6.90327 18.599003,-3.47861 4.0367,2.46142 3.0379,1.12686 38.6004,51.5751795 29.6836,42.10859 63.7035,90.318983 84.5358,119.797723 5.7515,8.13874 10.5962,14.65886 10.7659,14.48915 0.2973,-0.29734 -19.6865,-50.31267 -51.4574,-128.786873 -8.3502,-20.625 -15.4379,-39.34328 -15.7504,-41.59617 -1.3626,-9.8206195 6.7091,-18.22211952 16.4517,-17.12397952 2.441,0.27512 5.6021,1.36928002 7.0248,2.43146002 1.4226,1.06217 8.8739,10.8991495 16.5583,21.8599595 7.6845,10.9608 30.8539,43.77873 51.4877,72.92873 20.6338,29.150003 44.4307,62.771713 52.882,74.714923 13.7126,19.37847 15.7098,21.76906 18.5614,22.21811 1.7575,0.27676 43.0204,5.48968 91.6954,11.58427 133.8338,16.75732 133.9611,16.77469 137.2957,18.73338 8.8567,5.20231 8.8528,22.27461 -0.01,27.44112 -1.8236,1.06352 -9.0077,2.45622 -19.3452,3.75022 -9.0443,1.13213 -60.5363,7.64851 -114.4266,14.48084 l -97.9825,12.42243 -2.2837,2.82735 c -1.256,1.55505 -8.4489,11.60236 -15.9841,22.32736 -7.5352,10.725 -30.6076,43.35 -51.2719,72.5 -20.6644,29.15 -43.7898,61.87052 -51.3898,72.71226 -12.0541,17.19569 -14.3874,19.98779 -18.2763,21.87039 -7.0611,3.41821 -13.5488,1.52699 -18.7675,-5.47091 -1.5431,-2.06911 -2.0444,-4.19211 -1.9927,-8.43821 0.058,-4.77438 1.5312,-9.23936 9.295,-28.17353 16.1798,-39.45947 58.1356,-143.82538 58.1356,-144.6141 0,-0.41806 -4.5767,5.73658 -10.1706,13.67699 -5.5938,7.94041 -28.0182,39.63711 -49.832,70.43711 -21.8137,30.8 -46.6027,65.9 -55.0866,78 -13.3973,19.10772 -16.0109,22.2958 -19.8799,24.25 -5.4137,2.73441 -8.4746,2.82788 -13.046503,0.39839 -5.3523,-2.84424 -7.9844,-7.42815 -7.9844,-13.9054 0,-4.73143 1.9914,-10.35774 14.901603,-42.10211 17.7666,-43.68547 49.0864,-121.40073 52.0446,-129.14088 2.0553,-5.37751 2.0573,-5.44432 0.093,-3 -1.1053,1.375 -8.6395,11.95 -16.7427,23.5 -8.1032,11.55 -30.0596,42.6 -48.792103,69 -18.7325,26.4 -40.1217,56.72636 -47.5315,67.39192 -15.5985,22.45221 -19.2711,26.91093 -23.6902,28.76095 -4.308,1.8035 -6.9743,1.66996 -11.9735003,-0.59967 z M 3606.4346,350.11573 c -21.3183,-8.59771 -51.9321,-22.81617 -92.9322,-43.16209 -54.1587,-26.87575 -72.6221,-37.58335 -73.2529,-42.48207 -0.1391,-1.0802 5.726,-30.089 13.0337,-64.464 l 13.2866,-62.5 13.9663,0.25717 c 36.5713,0.67341 68.5316,10.31775 77.1002,23.26574 4.663,7.04629 4.3797,10.47742 -4.0844,49.47709 -4.1779,19.25 -7.8342,35.76606 -8.1251,36.70235 -0.6683,2.15083 5.1348,6.46047 20.0756,14.9092 15.2437,8.61996 49.3472,26.06448 59.0572,30.20873 l 8.0572,3.43883 24.9428,-9.19407 c 45.8208,-16.88981 77.3329,-30.36393 83.6335,-35.76043 2.4897,-2.13238 3.2981,-5.14441 10.8172,-40.30461 6.0229,-28.16307 8.7671,-39.09992 10.6009,-42.24898 7.5568,-12.97666 37.3307,-25.30377 70.3912,-29.14364 9.2921,-1.07925 38.0061,-2.57449 37.99,-1.97827 -0.094,3.4961 -27.1898,127.40666 -28.0996,128.50298 -4.2626,5.13609 -63.8493,30.66868 -137.3904,58.87108 -40.9828,15.71657 -82.7521,30.52219 -86,30.48375 -0.55,-0.007 -6.4305,-2.20195 -13.0678,-4.87876 z M 729.01507,344.38171 c 0.4707,-2.13078 8.5649,-40.09914 17.9871,-84.37414 11.2504,-52.86574 17.9662,-82.34218 19.5637,-85.86636 1.5117,-3.33499 4.8865,-7.77255 8.9154,-11.72291 11.3709,-11.14922 30.1419,-18.7136 57.1865,-23.04517 9.9088,-1.58703 25.4258,-1.76611 181.58463,-2.09567 93.9125,-0.1982 170.75,-0.10035 170.75,0.21744 0,0.82621 -43.9873,206.65576 -44.6141,208.76267 -0.4871,1.63723 -3.8349,1.75 -51.9533,1.75 -48.3342,0 -51.4298,-0.10542 -51.3868,-1.75 0.025,-0.9625 3.7897,-19.3 8.3656,-40.75 4.576,-21.45 8.1288,-39.3375 7.8953,-39.75 -0.2336,-0.4125 -46.4913,-0.75 -102.79483,-0.75 l -102.3701,0 -1.163,5.75 c -7.1691,35.44317 -9.5709,42.00868 -18.7004,51.12029 -15.2525,15.22269 -43.5358,23.6805 -85.95,25.70242 l -14.1716,0.67558 0.8559,-3.87415 z M 1067.6472,202.00757 c 2.3274,-10.175 4.2595,-18.8375 4.2934,-19.25 0.034,-0.4125 -46.2882,-0.75 -102.93823,-0.75 -56.65,0 -103,0.16093 -103,0.35762 0,0.19668 -1.8,8.36076 -4,18.14238 -2.2,9.78162 -4,18.39781 -4,19.14708 0,1.14255 16.5676,1.32122 102.7066,1.10761 l 102.70663,-0.25469 4.2316,-18.5 z m 186.8552,144.96667 c -20.4676,-1.65616 -39.207,-7.0997 -51.2613,-14.89076 -9.106,-5.88554 -14.1161,-13.6877 -14.1758,-22.07591 -0.036,-5.10974 27.2541,-131.8421 29.3174,-136.14479 7.6875,-16.03167 37.0944,-30.30791 72.1197,-35.01212 14.6653,-1.96968 265.4039,-1.96354 280,0.007 28.6014,3.86102 47.9347,12.96239 53.7804,25.31771 2.0948,4.42753 3.21,11.74225 2.3268,15.26143 l -0.6453,2.57091 -153.9127,0 -153.9128,0 -1.5668,7.25 c -4.4398,20.54422 -6.3004,30.32381 -5.898,31 0.2456,0.4125 69.5437,0.75 153.9958,0.75 l 153.5494,0 -0.6768,2.75 c -0.3723,1.5125 -1.8326,4.775 -3.2452,7.25 -7.4714,13.09072 -25.8058,23.14169 -51.8368,28.41707 -24.167,4.89763 -23.9234,4.88883 -146.7024,5.30127 l -115.7444,0.38881 -0.52,2.19642 c -0.6217,2.6263 -7.4912,36.8909 -7.4912,37.36574 0,0.18188 69.3303,0.33069 154.0674,0.33069 l 154.0674,0 -0.6475,2.25 c -5.877,20.42431 -26.6725,32.80293 -64.4873,38.38646 -10.2923,1.5197 -25.1,1.7212 -141,1.9187 -71.225,0.12136 -134,-0.14346 -139.5,-0.58849 z m 614.1364,-62.23108 -58.8637,-63.23559 79.1137,-0.25602 c 43.5125,-0.14081 79.1136,-0.44854 79.1136,-0.68383 0,-0.80391 7.0787,-35.05563 7.6074,-36.81015 0.4999,-1.6588 -4.8702,-1.75 -103.04,-1.75 -56.9621,0 -103.5674,0.27707 -103.5674,0.61572 0,2.88726 -24.5417,118.28711 -26.1334,122.88428 -6.9714,20.13504 -24.7674,32.67596 -53.8666,37.96001 -18.2799,3.3194 -57.7117,4.91028 -56.7599,2.28999 0.2497,-0.6875 10.3104,-47.93612 22.357,-104.99694 l 21.9029,-103.74695 159,0.0111 c 89.7686,0.006 166.2292,0.43091 175.6029,0.9753 32.4191,1.88278 51.0376,7.54386 60.6222,18.43254 7.8168,8.88036 8.0042,15.20622 1.3878,46.83441 -5.4725,26.15976 -7.2867,30.79425 -15.0175,38.36437 -12.2386,11.98422 -38.1602,20.67833 -68.0954,22.83918 -4.675,0.33746 -10.4458,0.85391 -12.824,1.14766 l -4.324,0.53409 12.324,12.71677 c 6.7782,6.99422 24.6404,25.41166 39.6939,40.92763 l 27.3698,28.21084 -62.3698,-0.0144 -62.3699,-0.0144 -58.8636,-63.2356 z m 313.3636,62.26747 c -18.6147,-1.50156 -33.9112,-5.3894 -46.7796,-11.88967 -12.6394,-6.38463 -18.6029,-14.48721 -18.4834,-25.11339 0.063,-5.60568 24.9489,-125.39558 27.9418,-134.5 2.1194,-6.44687 11.2633,-15.7215 20.6689,-20.96438 15.6961,-8.74926 38.7272,-14.74721 63.4809,-16.53221 17.6681,-1.27406 236.2908,-1.28786 258.1714,-0.0163 45.8997,2.66739 66.9035,13.56594 66.978,34.75397 0.03,8.61404 -26.1909,133.5397 -29.6939,141.47052 -7.0042,15.85758 -27.6881,26.46381 -61.2841,31.42509 -10.296,1.52047 -25.11,1.721 -141.5,1.91548 -71.5,0.11947 -134.275,-0.12763 -139.5,-0.54911 z m 243.3654,-43.75306 c 0.6803,-2.37974 25.6346,-119.77734 25.6346,-120.5977 0,-0.35877 -46.2742,-0.6523 -102.8316,-0.6523 l -102.8315,0 -12.2522,57.75 c -6.7387,31.7625 -12.6199,59.18215 -13.0692,60.93256 -0.4494,1.75041 -0.5617,3.43791 -0.2496,3.75 0.3121,0.31209 46.5871,0.56744 102.8334,0.56744 96.5389,0 102.2939,-0.098 102.7661,-1.75 z m 545.0872,41.12785 c 0.3978,-2.13282 8.5004,-40.34038 18.0059,-84.90571 18.9922,-89.04276 18.6613,-87.89745 28.0027,-96.92613 9.0942,-8.78973 20.1662,-14.365 37.9026,-19.08573 22.6349,-6.02452 15.4286,-5.80299 201.3862,-6.1909 93.6375,-0.19534 170.2752,0.002 170.306,0.43773 0.031,0.43609 -9.9816,47.92585 -22.25,105.5328 l -22.306,104.73992 -51.8295,0.0101 -51.8294,0.0101 0.5694,-2.75 c 0.3131,-1.5125 4.1739,-19.81137 8.5794,-40.66415 4.4056,-20.85278 8.0101,-38.29028 8.0101,-38.75 0,-1.1823 -204.7322,-1.07821 -205.4631,0.10447 -0.3196,0.51717 -2.1169,8.50467 -3.994,17.75 -3.8879,19.1498 -5.358,23.78803 -9.6681,30.50473 -12.9102,20.11893 -42.7773,30.9227 -92.2601,33.37306 l -13.8853,0.6876 0.7232,-3.87786 z M 3304.46,220.07623 c 0.581,-0.94012 8.5424,-35.62019 8.5424,-37.21104 0,-0.47169 -46.2612,-0.85762 -102.8027,-0.85762 l -102.8027,0 -3.7729,17.25 c -2.0751,9.4875 -4.0127,18.2625 -4.3057,19.5 l -0.5328,2.25 102.5494,0 c 62.2472,0 102.7756,-0.36602 103.125,-0.93134 z m 640.5424,127.25444 c -32.1665,-1.79509 -60.6285,-13.59182 -67.129,-27.8231 -1.0049,-2.2 -1.8561,-6.25 -1.8915,-9 -0.065,-5.04479 34.6614,-171.18001 36.1395,-172.89518 1.2228,-1.419 42.1051,1.16163 52.881,3.33802 11.1384,2.24962 19.6999,5.10522 25.5037,8.50648 5.0654,2.96848 11.1932,9.58094 13.0935,14.129 3.0457,7.28936 2.0357,13.42651 -16.1511,98.14836 -9.6546,44.97532 -17.8034,82.78582 -18.1084,84.02332 -0.529,2.14656 -0.9748,2.2415 -9.6961,2.06502 -5.0279,-0.10174 -11.6166,-0.32311 -14.6416,-0.49192 z m 138.5,-0.39221 c -30.4272,-2.38678 -56.3821,-13.75479 -62.629,-27.43089 -1.0403,-2.27749 -1.8365,-6.34253 -1.849,-9.4398 -0.035,-8.6079 26.5353,-132.53882 29.5172,-137.67709 10.1479,-17.48674 44.1639,-31.55889 83.0658,-34.36373 17.8838,-1.28942 236.2929,-1.31669 258.395,-0.0323 46.8436,2.72224 68,14.08227 68,36.51289 0,15.30376 -9.0427,24.54463 -32.9823,33.70526 -24.1291,9.23311 -36.8036,11.80422 -61.7677,12.52998 -10.0375,0.29182 -18.25,0.35645 -18.25,0.14364 0,-0.21281 1.7941,-8.48512 3.9869,-18.3829 2.1928,-9.89779 3.9928,-18.55848 4,-19.24598 0.01,-0.992 -21.1949,-1.24934 -102.7369,-1.24682 l -102.75,0.003 -12.7715,60.24683 c -7.0244,33.13575 -12.7619,60.80932 -12.75,61.49682 0.017,0.99176 21.2669,1.25 102.8575,1.25 l 102.8361,0 1.7359,-6.25 c 2.1341,-7.68366 7.6495,-13.45101 18.092,-18.91851 21.8645,-11.44791 43.4527,-16.61133 73.3634,-17.54691 17.6949,-0.55348 18.3428,-0.50541 17.7978,1.32051 -0.3111,1.0422 -2.8336,11.9744 -5.6056,24.29377 -3.2847,14.598 -5.8777,23.82717 -7.4451,26.5 -4.3902,7.48614 -11.4482,13.43136 -22.1105,18.62438 -16.3992,7.98716 -34.1282,12.15588 -59.4696,13.98343 -15.9945,1.15348 -245.7113,1.08666 -260.5304,-0.0758 z m 446.5836,-0.1337 c -20.3472,-2.26074 -41.9706,-9.96474 -50.7924,-18.09638 -6.6708,-6.149 -9.9347,-14.11469 -8.5844,-20.95081 l 0.5432,-2.75 155.3041,0 155.3041,0 1.0718,-5.25 c 6.0148,-29.46202 6.7571,-33.93118 5.6993,-34.31244 -0.6211,-0.22386 -55.3543,-0.5584 -121.6293,-0.74343 -106.9972,-0.29872 -121.3999,-0.52059 -128.5305,-1.97999 -24.8005,-5.0759 -42.0722,-14.13454 -47.5967,-24.96353 -3.6688,-7.19145 -3.4488,-12.30535 1.5305,-35.57183 6.1854,-28.90225 9.6381,-35.37993 23.966,-44.96302 12.6962,-8.49173 29.6447,-14.35684 51.6607,-17.87742 9.2556,-1.48006 24.3887,-1.72127 130.47,-2.07964 122.5533,-0.41401 149.7724,0.12165 168,3.3062 17.8751,3.12298 31.8001,9.2954 37.7051,16.71328 4.7094,5.91603 6.9683,15.74159 5.1654,22.46866 l -0.6021,2.24685 -154.0585,0.25315 -154.0584,0.25316 -3.7673,18 c -2.072,9.9 -3.7936,18.54541 -3.8257,19.21202 -0.045,0.941 26.8308,1.29547 120.1915,1.58518 103.628,0.32158 121.3663,0.58831 128.326,1.9296 30.8245,5.94058 47.4377,15.53847 50.4879,29.16824 1.1131,4.97396 0.8529,6.93624 -4.0061,30.21221 -3.369,16.13822 -6.1761,27.02099 -7.9818,30.94421 -8.414,18.28176 -32.8629,29.48839 -72.932,33.42986 -13.1962,1.29807 -265.2278,1.13057 -277.0604,-0.18413 z m -1970.0511,-1.54719 c 0.018,-0.9625 9.8476,-48.1 21.8438,-104.75 l 21.8113,-103 8.9062,-0.30934 c 13.5368,-0.47019 43.4981,1.51292 56.5168,3.7408 14.6614,2.50898 28.1895,6.87375 38.186,12.32046 4.2881,2.33644 37.0795,26.07308 72.8698,52.74808 35.7904,26.675 65.3214,48.5 65.6246,48.5 0.3032,0 4.2849,-17.55 8.8482,-39 4.5633,-21.45 8.995,-40.8 9.8484,-43 3.9333,-10.14039 14.5029,-19.26763 28.894,-24.95113 8.8935,-3.51231 25.4643,-7.18231 38.1184,-8.44225 15.471,-1.54041 41.5,-2.43292 41.5,-1.423 0,0.68486 -37.2859,177.50965 -43.0301,204.06638 l -1.1356,5.25 -16.6672,-0.009 c -36.7532,-0.0189 -63.0187,-4.48325 -82.9831,-14.10474 -6.2722,-3.0228 -24.7014,-16.29272 -74.9888,-53.99559 -55.8509,-41.87413 -66.7883,-49.69594 -67.384,-48.18948 -0.6771,1.71263 -24.8112,114.16568 -24.8112,115.60837 0,0.37974 -22.95,0.69044 -51,0.69044 -47.9171,0 -50.998,-0.10578 -50.9675,-1.75 z"
     id="path4191"
     inkscape:connector-curvature="0" />
</svg>
